<?xml version="1.0" encoding="UTF-8"?>
<svg width="1300px" height="1300px" viewBox="0 0 1300 1300" version="1.1" xmlns="http://www.w3.org/2000/svg" xmlns:xlink="http://www.w3.org/1999/xlink">
    <!-- Generator: Sketch 63.1 (92452) - https://sketch.com -->
    <title>Log</title>
    <desc>Created with Sketch.</desc>
    <g id="Tango-logo" stroke="none" stroke-width="1" fill="none" fill-rule="evenodd">
        <g id="Log" fill-rule="nonzero">
            <rect id="Rectangle-3" fill="#000000" x="0" y="0" width="1300" height="1300"></rect>
            <g id="a-logo">
                <rect id="Rectangle" fill="#CF0039" x="0" y="0" width="300" height="300"></rect>
                <path d="M189.442908,226 L177.457005,192.125714 L121.674011,192.125714 L109.688107,226 L77,226 L135.401852,74 L165.03727,74 L223,226 L189.442908,226 Z M157.193923,135.667253 C154.142557,126.765385 151.091191,117.646044 149.564846,111.99967 C148.041147,117.646044 144.991104,126.765385 141.938415,135.667253 L132.130925,163.245385 L167.000091,163.245385 L157.193923,135.667253 Z" id="Shape" fill="#FFFFFF"></path>
                <path d="M70.2659398,154.212705 C69.5510574,156.352326 67.2457919,157.504837 65.1169431,156.786337 L22.7743116,142.504996 C20.6467794,141.786497 19.497438,139.47089 20.2123204,137.331269 L23.7340709,126.786656 C24.4489533,124.648358 26.7542188,123.495848 28.8830676,124.213024 L71.2243826,138.497011 C73.3532314,139.214188 74.5025728,141.531118 73.7876903,143.670739 L70.2659398,154.212705 Z" id="Path" fill="#F18A00"></path>
                <path d="M67.7872553,187.118369 C68.5040682,189.22303 67.3508194,191.502103 65.2096384,192.207562 L34.9117295,202.790741 C32.7718711,203.496199 30.4587608,202.359917 29.7419479,200.255255 L26.2121073,189.881631 C25.496617,187.77697 26.6498658,185.497897 28.7897242,184.79374 L59.0889556,174.209259 C61.2274915,173.503801 63.5419243,174.640083 64.2587372,176.744745 L67.7872553,187.118369 Z" id="Path" fill="#F18A00"></path>
                <path d="M59.5795127,90.697848 C57.8023056,92.0841462 57.4758261,94.6651621 58.8501995,96.4625603 L77.9624159,122.404431 C79.3381058,124.199168 81.8880688,124.529112 83.6665923,123.142814 L92.4196661,116.304452 C94.1968732,114.915493 94.5246692,112.335808 93.1502957,110.53841 L74.0380794,84.5965393 C72.6650224,82.8004716 70.1124265,82.4705273 68.333903,83.8581559 L59.5795127,90.697848 Z" id="Path" fill="#F18A00"></path>
                <path d="M228.734059,154.212705 C229.448942,156.352326 231.754207,157.504837 233.883055,156.786337 L276.226995,142.504996 C278.35321,141.786497 279.502551,139.47089 278.787669,137.331269 L275.265919,126.786656 C274.551037,124.648358 272.245772,123.495848 270.116923,124.213024 L227.775617,138.497011 C225.646768,139.214188 224.497427,141.531118 225.21231,143.670739 L228.734059,154.212705 Z" id="Path" fill="#F18A00"></path>
                <path d="M231.213255,187.118369 C230.495117,189.22303 231.649693,191.502103 233.790883,192.207562 L264.087596,202.790741 C266.228786,203.496199 268.543228,202.359917 269.257399,200.255255 L272.787254,189.881631 C273.50407,187.77697 272.350817,185.497897 270.209627,184.79374 L239.911591,174.209259 C237.773046,173.503801 235.457281,174.640083 234.741788,176.744745 L231.213255,187.118369 Z" id="Path" fill="#F18A00"></path>
                <path d="M239.421166,90.697848 C241.197037,92.0841462 241.524829,94.6651621 240.149155,96.4625603 L221.037147,122.404431 C219.661473,124.199168 217.112854,124.529112 215.333033,123.142814 L206.580055,116.304452 C204.802868,114.915493 204.475075,112.335808 205.85075,110.53841 L224.962757,84.5965393 C226.335799,82.8004716 228.889684,82.4705273 230.666871,83.8581559 L239.421166,90.697848 Z" id="Path" fill="#F18A00"></path>
            </g>
            <path d="M591.386719,838.270508 L591.386719,808.167969 L567.436523,808.167969 C534.477539,808.167969 528.105469,800.477539 528.105469,762.245117 L528.105469,703.578125 C528.105469,672.816406 505.03418,652.381836 460.429688,651.50293 L460.429688,647.987305 C505.03418,646.888672 528.105469,626.454102 528.105469,595.692383 L528.105469,537.025391 C528.105469,498.792969 534.477539,491.102539 567.436523,491.102539 L591.386719,491.102539 L591.386719,461 L561.503906,461 C508.110352,461 491.191406,477.918945 491.191406,532.191406 L491.191406,581.410156 C491.191406,615.467773 471.416016,635.023438 420,629.75 L420,669.520508 C471.416016,664.24707 491.191406,684.022461 491.191406,717.860352 L491.191406,767.079102 C491.191406,821.351562 508.110352,838.270508 561.503906,838.270508 L591.386719,838.270508 Z M737.556641,838.270508 C790.950195,838.270508 807.869141,821.351562 807.869141,767.079102 L807.869141,717.860352 C807.869141,684.022461 827.644531,664.24707 879.060547,669.520508 L879.060547,629.75 C827.644531,635.023438 807.869141,615.467773 807.869141,581.410156 L807.869141,532.191406 C807.869141,477.918945 790.950195,461 737.556641,461 L707.673828,461 L707.673828,491.102539 L731.624023,491.102539 C764.583008,491.102539 770.955078,498.792969 770.955078,537.025391 L770.955078,595.692383 C770.955078,626.454102 794.026367,646.888672 838.630859,647.987305 L838.630859,651.50293 C794.026367,652.381836 770.955078,672.816406 770.955078,703.578125 L770.955078,762.245117 C770.955078,800.477539 764.583008,808.167969 731.624023,808.167969 L707.673828,808.167969 L707.673828,838.270508 L737.556641,838.270508 Z" id="{}" fill="#FFFFFF"></path>
        </g>
    </g>
</svg>